{"title":"Out.Of.The.Blue.2006.DVDRiP.XViD.AC3.Optional.NORDIC.Zen_Bud","uid":5810946,"size":1477235896,"categoryP":"video","categoryS":"movies","magnet":"?xt=urn:btih:80be35c3d40998a1b530f9b93e21a5bd4dfe2d9c&amp;dn=Out.Of.The.Blue.2006.DVDRiP.XViD.AC3.Optional.NORDIC.Zen_Bud&amp;tr=udp%3A%2F%2Ftracker.openbittorrent.com%3A80&amp;tr=udp%3A%2F%2Fopen.demonii.com%3A1337&amp;tr=udp%3A%2F%2Ftracker.coppersurfer.tk%3A6969&amp;tr=udp%3A%2F%2Fexodus.desync.com%3A6969","seeders":0,"leechers":0,"uploader":"Zen_Bud","files":-1,"time":1283629255,"description":"\nComplete name                    : Out.Of.The.Blue.2006.avi\nFormat                           : AVI\nFile size                        : 1.37 GiB\nDuration                         : 1h 38mn\nOverall bit rate                 : 1 980 Kbps\n\nVideo\n\nFormat                           : MPEG-4 Visual\nCodec ID/Hint                    : XviD\nDuration                         : 1h 38mn\nBit rate                         : 1 521 Kbps\nWidth                            : 720 pixels\nHeight                           : 552 pixels\nDisplay aspect ratio             : 1.855\nStream size                      : 1.05 GiB (77%)\nWriting library                  : XviD 1.1.2 (UTC 2006-11-01)\n\nAudio\n\nFormat                           : AC-3\nDuration                         : 1h 38mn\nBit rate                         : 448 Kbps\nChannel(s)                       : 6 channels\nChannel positions                : Front: L C R, Side: L R, LFE\nSampling rate                    : 48.0 KHz\nBit depth                        : 16 bits\nStream size                      : 317 MiB (23%)\n\n\nText #1\nLanguage                         : Finnish\n\nText #2\nLanguage                         : Norwegian\n\nText #3\nLanguage                         : Swedish\n\nText #4\nLanguage                         : Danish","torrent":{"xt":"urn:btih:80be35c3d40998a1b530f9b93e21a5bd4dfe2d9c","amp;dn":"Out.Of.The.Blue.2006.DVDRiP.XViD.AC3.Optional.NORDIC.Zen_Bud","amp;tr":["udp%3A%2F%2Ftracker.openbittorrent.com%3A80","udp%3A%2F%2Fopen.demonii.com%3A1337","udp%3A%2F%2Ftracker.coppersurfer.tk%3A6969","udp%3A%2F%2Fexodus.desync.com%3A6969"],"infoHash":"80be35c3d40998a1b530f9b93e21a5bd4dfe2d9c","infoHashBuffer":{"type":"Buffer","data":[128,190,53,195,212,9,152,161,181,48,249,185,62,33,165,189,77,254,45,156]},"announce":[],"urlList":[]}}